<svg xmlns="http://www.w3.org/2000/svg" xmlns:xlink="http://www.w3.org/1999/xlink" width="500" zoomAndPan="magnify" viewBox="0 0 375 374.999991" height="500" preserveAspectRatio="xMidYMid meet" version="1.0"><defs><clipPath id="70e82b1da5"><path d="M 0 28.359375 L 373.300781 28.359375 L 373.300781 346.359375 L 0 346.359375 Z M 0 28.359375 " clip-rule="nonzero"/></clipPath><clipPath id="ee68f6974e"><path d="M 56 86.011719 L 319 86.011719 L 319 250 L 56 250 Z M 56 86.011719 " clip-rule="nonzero"/></clipPath></defs><g clip-path="url(#70e82b1da5)"><path fill="#6fcf97" d="M 35.808594 346.640625 C 33.570312 346.640625 31.5 345.382812 30.480469 343.355469 C 29.371094 341.148438 29.734375 338.484375 31.394531 336.660156 C 48.988281 317.304688 61.53125 300.53125 65.125 282.613281 C 22.667969 255.167969 -1.585938 215.1875 -1.585938 172.382812 C -1.585938 133.597656 18.121094 97.242188 53.902344 70.011719 C 89.203125 43.152344 136.042969 28.359375 185.800781 28.359375 C 235.558594 28.359375 282.398438 43.152344 317.699219 70.011719 C 353.480469 97.242188 373.1875 133.597656 373.1875 172.382812 C 373.1875 211.164062 353.480469 247.519531 317.699219 274.75 C 282.398438 301.609375 235.558594 316.402344 185.800781 316.402344 C 173.179688 316.402344 160.542969 315.425781 148.203125 313.5 C 120.535156 331.246094 84.921875 341.785156 36.402344 346.613281 C 36.203125 346.632812 36.003906 346.640625 35.808594 346.640625 Z M 185.800781 40.292969 C 89.054688 40.292969 10.347656 99.546875 10.347656 172.382812 C 10.347656 212.082031 33.835938 249.339844 74.785156 274.597656 C 76.78125 275.832031 77.871094 278.117188 77.570312 280.445312 C 75.015625 300.160156 63.382812 317.613281 50.527344 332.957031 C 90.390625 327.628906 120.21875 317.753906 143.578125 302.265625 C 144.835938 301.433594 146.363281 301.109375 147.855469 301.351562 C 160.28125 303.421875 173.046875 304.46875 185.800781 304.46875 C 282.546875 304.46875 361.253906 245.214844 361.253906 172.382812 C 361.253906 99.546875 282.546875 40.292969 185.800781 40.292969 Z M 185.800781 40.292969 " fill-opacity="1" fill-rule="nonzero"/></g><g clip-path="url(#ee68f6974e)"><path fill="#ff6f61" d="M 143.335938 222.6875 C 151.621094 229.476562 160.21875 235.753906 170.1875 240.550781 C 159.441406 242.25 149.148438 241.75 141.894531 240.273438 C 140.878906 234.339844 141.222656 227.964844 143.335938 222.6875 Z M 161.902344 94.371094 C 172.453125 95.113281 184.175781 97.949219 197.261719 102.726562 C 180.742188 104.980469 167.953125 111.046875 156.554688 118.769531 C 156.882812 110.5 158.03125 102.589844 161.902344 94.371094 Z M 159.238281 86.140625 C 157.945312 86.222656 156.8125 86.960938 156.191406 88.097656 C 149.246094 100.785156 148.941406 112.835938 148.917969 124.269531 C 141.632812 129.890625 134.71875 136.03125 127.515625 142.027344 C 123.789062 145.140625 122.085938 145.535156 120.109375 145.328125 C 118.113281 145.121094 115.195312 143.714844 110.757812 141.820312 L 73.105469 125.710938 C 67.96875 123.511719 62.363281 124.027344 59.148438 127.757812 C 55.9375 131.503906 55.96875 137.210938 58.753906 142.957031 C 69.570312 165.285156 72.628906 181.015625 58.769531 208.402344 C 55.878906 214.128906 55.828125 219.898438 59.082031 223.632812 C 62.3125 227.378906 67.953125 227.910156 73.105469 225.710938 L 110.757812 209.601562 C 115.195312 207.699219 118.113281 206.300781 120.109375 206.09375 C 122.085938 205.890625 123.789062 206.300781 127.515625 209.410156 C 130.816406 212.160156 134.085938 214.945312 137.335938 217.699219 C 133.175781 225.644531 131.867188 235.441406 134.308594 244.589844 C 134.652344 245.878906 135.667969 246.890625 136.976562 247.234375 C 148.011719 250.175781 165.546875 250.550781 182.496094 245.394531 C 191.023438 248.046875 200.5625 249.640625 211.671875 249.640625 C 261.695312 249.640625 302.523438 219.386719 314.984375 191.539062 C 316.929688 187.019531 310.222656 184.007812 308.128906 188.476562 C 302.453125 201.144531 288.90625 215.382812 270.515625 226.023438 C 254.320312 224.542969 239.980469 212.648438 233.65625 194.820312 C 227.308594 176.957031 230.339844 156.386719 241.273438 141.996094 C 243.164062 139.570312 241.496094 136.042969 238.457031 135.945312 C 237.214844 135.929688 236.066406 136.496094 235.339844 137.492188 C 222.742188 154.0625 219.40625 177.085938 226.589844 197.3125 C 232.523438 214.058594 244.953125 226.628906 260.0625 231.457031 C 245.789062 237.976562 229.304688 241.808594 211.671875 242.148438 C 173.867188 242.902344 154.128906 221.910156 132.3125 203.65625 C 127.777344 199.855469 123.464844 198.242188 119.351562 198.652344 C 115.242188 199.085938 111.976562 200.925781 107.816406 202.710938 L 70.152344 218.835938 C 67.007812 220.175781 65.425781 219.519531 64.757812 218.730469 C 64.070312 217.941406 63.414062 215.839844 65.460938 211.785156 C 80.085938 182.855469 76.722656 162.894531 65.476562 139.707031 C 63.480469 135.578125 64.167969 133.433594 64.820312 132.65625 C 65.492188 131.882812 66.988281 131.230469 70.148438 132.585938 L 107.820312 148.710938 C 111.980469 150.484375 115.242188 152.359375 119.355469 152.789062 C 123.464844 153.199219 127.777344 151.550781 132.316406 147.769531 C 156.058594 127.980469 177.21875 109.074219 210.585938 109.363281 C 241.480469 109.625 263.808594 119.421875 281.191406 132.125 C 298.074219 144.46875 308.132812 159.667969 310.171875 171.40625 L 299.171875 176.566406 L 294.394531 178.796875 C 289.511719 180.777344 292.917969 188.066406 297.558594 185.570312 L 302.355469 183.339844 L 316.46875 176.722656 C 317.894531 176.03125 318.738281 174.550781 318.582031 172.972656 C 317.171875 157.378906 304.671875 140.019531 285.625 126.074219 C 267.335938 112.703125 242.703125 102.644531 215.128906 101.851562 C 194.429688 92.726562 176.105469 86.773438 159.632812 86.140625 C 159.496094 86.140625 159.375 86.140625 159.238281 86.140625 Z M 159.238281 86.140625 " fill-opacity="1" fill-rule="evenodd"/></g><path fill="#ff6f61" d="M 285.386719 156.15625 C 285.386719 159.882812 282.464844 162.914062 278.851562 162.914062 C 275.242188 162.914062 272.316406 159.886719 272.316406 156.15625 C 272.316406 152.445312 275.238281 149.421875 278.851562 149.421875 C 282.464844 149.421875 285.386719 152.445312 285.386719 156.15625 Z M 285.386719 156.15625 " fill-opacity="1" fill-rule="evenodd"/></svg>